<svg width="238.003" height="401.005" xmlns="http://www.w3.org/2000/svg" xmlns:xlink="http://www.w3.org/1999/xlink"><defs><symbol viewBox="0 0 47.001 47.001" id="attention"><path d="M46.907 20.12a.989.989 0 0 0-.896-.569h-2.927C41.223 9.452 32.355 1.775 21.726 1.775 9.747 1.775 0 11.522 0 23.501s9.746 21.725 21.726 21.725c7.731 0 14.941-4.161 18.816-10.857a1.975 1.975 0 0 0-.722-2.699 1.971 1.971 0 0 0-2.697.72c-3.172 5.481-9.072 8.887-15.397 8.887-9.801 0-17.776-7.974-17.776-17.774 0-9.802 7.975-17.776 17.776-17.776 8.442 0 15.515 5.921 17.317 13.825h-2.904a.99.99 0 0 0-.896.569.985.985 0 0 0 .136 1.051l4.938 5.925a.988.988 0 0 0 1.517 0l4.938-5.925a.987.987 0 0 0 .135-1.052z" /><path d="M21.726 6.713a1.975 1.975 0 0 0-1.975 1.975v11.984a3.451 3.451 0 0 0-1.481 2.83 3.461 3.461 0 0 0 3.457 3.457c.522 0 1.014-.125 1.458-.334l6.87 3.965a1.974 1.974 0 0 0 1.974-3.419L25.152 23.2a3.44 3.44 0 0 0-1.449-2.526V8.688a1.979 1.979 0 0 0-1.977-1.975zm0 18.269a1.483 1.483 0 0 1-1.481-1.48c0-.816.665-1.481 1.481-1.481s1.481.665 1.481 1.481c0 .815-.665 1.48-1.481 1.48z" /></symbol><symbol id="chevron-left" viewBox="0 0 86.001 86.001"><path d="M64.998 80.095a3.484 3.484 0 0 1 0 4.893 3.401 3.401 0 0 1-4.844 0l-39.151-39.54a3.486 3.486 0 0 1 0-4.895l39.15-39.539a3.4 3.4 0 0 1 4.844 0A3.487 3.487 0 0 1 65 5.907L29.294 43.001l35.704 37.094z" fill="#030104" /></symbol><symbol id="chevron-right" viewBox="0 0 238.003 238.003"><path d="M181.776 107.719L78.705 4.648c-6.198-6.198-16.273-6.198-22.47 0s-6.198 16.273 0 22.47l91.883 91.883-91.883 91.883c-6.198 6.198-6.198 16.273 0 22.47s16.273 6.198 22.47 0l103.071-103.039a15.741 15.741 0 0 0 4.64-11.283c0-4.13-1.526-8.199-4.64-11.313z" fill="#010002" /></symbol></defs><use width="47.001" height="47.001" xlink:href="#attention" transform="translate(0, 0)" /><use width="86.001" height="86.001" xlink:href="#chevron-left" transform="translate(0, 57.001)" /><use width="238.003" height="238.003" xlink:href="#chevron-right" transform="translate(0, 153.002)" /></svg>